# 3ds Max Wavefront OBJ Exporter v0.99 - (c)2007 guruware
# File Created: 14.11.2023 01:25:11

mtllib base_tablero.mtl

#
# object base_tablero
#

v  -5.0413 16.9244 -22.5351
v  -5.0413 16.9272 -4.0146
v  -4.9946 16.9244 -22.5351
v  -4.9946 16.9272 -4.0146
v  -5.0708 16.9269 -22.5355
v  -5.0708 16.9298 -4.0149
v  5.9294 16.9345 -22.8378
v  -4.6834 16.9345 -22.8378
v  -4.6834 16.9269 -22.8143
v  5.9294 16.9269 -22.8143
v  -4.6834 16.9244 -22.7643
v  5.9294 16.9244 -22.6754
v  5.9294 16.9244 -22.7643
v  -4.6834 16.9244 -22.6754
v  -4.6834 16.9273 -3.3426
v  5.9293 16.9273 -3.3426
v  -4.6834 16.9273 -3.4315
v  5.9293 16.9273 -3.4315
v  -4.6834 16.9299 -3.2933
v  5.9293 16.9299 -3.2933
v  6.2405 16.9269 -22.8143
v  6.2872 16.9345 -22.8378
v  6.2405 16.9345 -22.8378
v  6.2872 16.9269 -22.8143
v  6.3164 16.9367 -22.8378
v  6.3166 16.9294 -22.8145
v  6.2872 16.9244 -22.7643
v  6.2405 16.9244 -22.6754
v  6.2872 16.9244 -22.6754
v  6.2405 16.9244 -22.7643
v  6.3167 16.9269 -22.7646
v  6.3167 16.9269 -22.6757
v  6.2872 16.9273 -3.3426
v  6.2872 16.9273 -3.4315
v  6.2405 16.9273 -3.4315
v  6.2405 16.9273 -3.3426
v  6.2872 16.9299 -3.2933
v  6.2405 16.9299 -3.2933
v  6.3167 16.9299 -3.4319
v  6.3167 16.9299 -3.3430
v  6.3166 16.9324 -3.2938
v  -4.9946 16.9273 -3.4315
v  -5.0413 16.9273 -3.3426
v  -4.9946 16.9273 -3.3426
v  -5.0413 16.9273 -3.4315
v  -5.0708 16.9299 -3.4319
v  -5.0708 16.9299 -3.3430
v  -5.0413 16.9299 -3.2933
v  -4.9946 16.9299 -3.2933
v  -5.0707 16.9324 -3.2938
v  -4.9946 16.9244 -22.7643
v  -5.0413 16.9244 -22.6754
v  -4.9946 16.9244 -22.6754
v  -5.0413 16.9244 -22.7643
v  -4.9946 16.9269 -22.8143
v  -5.0413 16.9269 -22.8143
v  -5.0708 16.9269 -22.6757
v  -5.0708 16.9269 -22.7646
v  -5.0707 16.9294 -22.8145
v  -4.9946 16.9345 -22.8378
v  -5.0413 16.9345 -22.8378
v  -5.0704 16.9367 -22.8378
v  6.1722 16.9272 -4.0146
v  6.2405 16.9244 -22.5351
v  6.1722 16.9244 -22.5351
v  6.2405 16.9272 -4.0146
v  5.9294 16.9244 -22.5351
v  5.9293 16.9272 -4.0146
v  -4.9263 16.9269 -22.8143
v  -4.9263 16.9345 -22.8378
v  -4.9263 16.9244 -22.6754
v  -4.9263 16.9244 -22.7643
v  6.1722 16.9244 -22.7643
v  6.1722 16.9244 -22.6754
v  6.1722 16.9269 -22.8143
v  6.1722 16.9345 -22.8378
v  6.1722 16.9273 -3.4315
v  6.1722 16.9273 -3.3426
v  6.1722 16.9299 -3.2933
v  -4.9263 16.9273 -3.3426
v  -4.9263 16.9273 -3.4315
v  -4.9263 16.9299 -3.2933
v  -4.6834 16.9273 -3.5718
v  5.9293 16.9273 -3.5718
v  -4.6834 16.9272 -4.0146
v  -4.6834 16.9244 -22.5351
v  6.2872 16.9244 -22.5351
v  6.2872 16.9272 -4.0146
v  6.3167 16.9269 -22.5354
v  6.3167 16.9298 -4.0149
v  6.2872 16.9273 -3.5718
v  6.2405 16.9273 -3.5718
v  6.3167 16.9299 -3.5722
v  -4.9946 16.9273 -3.5718
v  -5.0413 16.9273 -3.5718
v  -5.0708 16.9299 -3.5722
v  -4.9263 16.9273 -3.5718
v  -4.9263 16.9272 -4.0146
v  -4.9263 16.9244 -22.5351
v  6.1722 16.9273 -3.5718
v  0.6230 16.9258 -13.2748
# 101 vertices

vn 0.0208 0.9968 -0.0773
vn 0.0215 0.9968 -0.0773
vn -0.0000 0.9970 -0.0773
vn 0.0000 0.9970 -0.0773
vn 0.0420 0.9961 -0.0773
vn 0.0432 0.9961 -0.0772
vn 0.0000 0.9977 0.0682
vn -0.0000 0.9977 0.0682
vn 0.0000 1.0000 0.0066
vn -0.0000 1.0000 0.0066
vn 0.0000 0.9978 -0.0662
vn 0.0000 0.9961 -0.0887
vn -0.0000 0.9961 -0.0887
vn -0.0000 0.9950 -0.1000
vn -0.0198 0.9975 0.0677
vn -0.0201 0.9998 0.0063
vn -0.0397 0.9970 0.0670
vn -0.0405 0.9992 0.0058
vn -0.0208 0.9976 -0.0663
vn -0.0209 0.9968 -0.0773
vn -0.0418 0.9969 -0.0664
vn -0.0417 0.9961 -0.0772
vn -0.0217 0.9958 -0.0885
vn -0.0219 0.9968 -0.0773
vn -0.0215 0.9948 -0.0998
vn -0.0437 0.9961 -0.0772
vn -0.0436 0.9951 -0.0883
vn -0.0429 0.9941 -0.0997
vn 0.0217 0.9958 -0.0885
vn 0.0219 0.9968 -0.0773
vn 0.0437 0.9961 -0.0772
vn 0.0436 0.9951 -0.0883
vn 0.0212 0.9948 -0.1000
vn 0.0000 0.9950 -0.1000
vn 0.0432 0.9941 -0.0996
vn -0.0000 0.9978 -0.0662
vn 0.0209 0.9968 -0.0773
vn 0.0208 0.9976 -0.0663
vn 0.0204 0.9998 0.0061
vn 0.0417 0.9961 -0.0772
vn 0.0418 0.9969 -0.0663
vn 0.0409 0.9991 0.0054
vn 0.0198 0.9975 0.0677
vn 0.0397 0.9970 0.0670
vn -0.0208 0.9968 -0.0773
vn -0.0434 0.9961 -0.0772
# 46 vertex normals

vt 0.0293 0.9161 0.0000
vt 0.0293 0.0685 0.0000
vt 0.0333 0.9161 0.0000
vt 0.0333 0.0685 0.0000
vt 0.0268 0.9161 0.0000
vt 0.0268 0.0685 0.0000
vt 0.9647 0.9299 0.0000
vt 0.0599 0.9299 0.0000
vt 0.0599 0.9288 0.0000
vt 0.9647 0.9288 0.0000
vt 0.0599 0.9266 0.0000
vt 0.9647 0.9225 0.0000
vt 0.9647 0.9266 0.0000
vt 0.0599 0.9225 0.0000
vt 0.0598 0.0378 0.0000
vt 0.9647 0.0378 0.0000
vt 0.0598 0.0419 0.0000
vt 0.9647 0.0419 0.0000
vt 0.0598 0.0355 0.0000
vt 0.9647 0.0355 0.0000
vt 0.9913 0.9288 0.0000
vt 0.9952 0.9299 0.0000
vt 0.9913 0.9299 0.0000
vt 0.9952 0.9288 0.0000
vt 0.9977 0.9298 0.0000
vt 0.9978 0.9288 0.0000
vt 0.9952 0.9266 0.0000
vt 0.9913 0.9225 0.0000
vt 0.9952 0.9225 0.0000
vt 0.9913 0.9266 0.0000
vt 0.9978 0.9266 0.0000
vt 0.9978 0.9225 0.0000
vt 0.9952 0.0378 0.0000
vt 0.9952 0.0419 0.0000
vt 0.9913 0.0419 0.0000
vt 0.9913 0.0378 0.0000
vt 0.9952 0.0355 0.0000
vt 0.9913 0.0355 0.0000
vt 0.9978 0.0419 0.0000
vt 0.9978 0.0378 0.0000
vt 0.9978 0.0355 0.0000
vt 0.0333 0.0419 0.0000
vt 0.0293 0.0378 0.0000
vt 0.0333 0.0378 0.0000
vt 0.0293 0.0419 0.0000
vt 0.0268 0.0419 0.0000
vt 0.0268 0.0378 0.0000
vt 0.0293 0.0355 0.0000
vt 0.0333 0.0355 0.0000
vt 0.0268 0.0355 0.0000
vt 0.0333 0.9266 0.0000
vt 0.0293 0.9225 0.0000
vt 0.0333 0.9225 0.0000
vt 0.0293 0.9266 0.0000
vt 0.0333 0.9288 0.0000
vt 0.0293 0.9288 0.0000
vt 0.0268 0.9225 0.0000
vt 0.0268 0.9266 0.0000
vt 0.0268 0.9288 0.0000
vt 0.0333 0.9299 0.0000
vt 0.0293 0.9299 0.0000
vt 0.0269 0.9298 0.0000
vt 0.9854 0.0685 0.0000
vt 0.9913 0.9161 0.0000
vt 0.9854 0.9161 0.0000
vt 0.9913 0.0685 0.0000
vt 0.9647 0.9161 0.0000
vt 0.9647 0.0685 0.0000
vt 0.0391 0.9288 0.0000
vt 0.0391 0.9299 0.0000
vt 0.0391 0.9225 0.0000
vt 0.0391 0.9266 0.0000
vt 0.9854 0.9266 0.0000
vt 0.9854 0.9225 0.0000
vt 0.9854 0.9288 0.0000
vt 0.9854 0.9299 0.0000
vt 0.9854 0.0419 0.0000
vt 0.9854 0.0378 0.0000
vt 0.9854 0.0355 0.0000
vt 0.0391 0.0378 0.0000
vt 0.0391 0.0419 0.0000
vt 0.0391 0.0355 0.0000
vt 0.0598 0.0483 0.0000
vt 0.9647 0.0483 0.0000
vt 0.0598 0.0685 0.0000
vt 0.0599 0.9161 0.0000
vt 0.9952 0.9161 0.0000
vt 0.9952 0.0685 0.0000
vt 0.9978 0.9161 0.0000
vt 0.9978 0.0685 0.0000
vt 0.9952 0.0483 0.0000
vt 0.9913 0.0483 0.0000
vt 0.9978 0.0483 0.0000
vt 0.0333 0.0483 0.0000
vt 0.0293 0.0483 0.0000
vt 0.0268 0.0483 0.0000
vt 0.0391 0.0483 0.0000
vt 0.0391 0.0685 0.0000
vt 0.0391 0.9161 0.0000
vt 0.9854 0.0483 0.0000
vt 0.5123 0.4923 0.0000
# 101 texture coords

o base_tablero
g base_tablero
usemtl Material__67
s off
f 1/1/1 2/2/2 3/3/3 
f 3/3/3 2/2/2 4/4/4 
f 2/2/2 1/1/1 5/5/5 
f 5/5/5 6/6/6 2/2/2 
f 7/7/7 8/8/8 9/9/9 
f 7/7/7 9/9/9 10/10/10 
f 11/11/11 12/12/4 13/13/11 
f 12/12/4 11/11/11 14/14/3 
f 10/10/10 9/9/9 11/11/11 
f 10/10/10 11/11/11 13/13/11 
f 15/15/12 16/16/13 17/17/4 
f 18/18/4 17/17/4 16/16/13 
f 16/16/13 15/15/12 19/19/14 
f 16/16/13 19/19/14 20/20/14 
f 21/21/10 22/22/15 23/23/8 
f 22/22/15 21/21/10 24/24/16 
f 25/25/17 24/24/16 26/26/18 
f 24/24/16 25/25/17 22/22/15 
f 27/27/19 28/28/4 29/29/20 
f 28/28/4 27/27/19 30/30/11 
f 31/31/21 29/29/20 32/32/22 
f 29/29/20 31/31/21 27/27/19 
f 24/24/16 30/30/11 27/27/19 
f 30/30/11 24/24/16 21/21/10 
f 26/26/18 27/27/19 31/31/21 
f 27/27/19 26/26/18 24/24/16 
f 33/33/23 34/34/24 35/35/4 
f 35/35/4 36/36/12 33/33/23 
f 33/33/23 36/36/12 37/37/25 
f 36/36/12 38/38/14 37/37/25 
f 39/39/26 33/33/23 40/40/27 
f 33/33/23 39/39/26 34/34/24 
f 41/41/28 40/40/27 33/33/23 
f 33/33/23 37/37/25 41/41/28 
f 42/42/4 43/43/29 44/44/12 
f 43/43/29 42/42/4 45/45/30 
f 46/46/31 43/43/29 45/45/30 
f 43/43/29 46/46/31 47/47/32 
f 44/44/12 48/48/33 49/49/34 
f 48/48/33 44/44/12 43/43/29 
f 43/43/29 50/50/35 48/48/33 
f 50/50/35 43/43/29 47/47/32 
f 51/51/36 52/52/37 53/53/3 
f 52/52/37 51/51/36 54/54/38 
f 55/55/10 54/54/38 51/51/36 
f 54/54/38 55/55/10 56/56/39 
f 54/54/38 57/57/40 52/52/37 
f 57/57/40 54/54/38 58/58/41 
f 59/59/42 54/54/38 56/56/39 
f 54/54/38 59/59/42 58/58/41 
f 60/60/8 56/56/39 55/55/10 
f 56/56/39 60/60/8 61/61/43 
f 62/62/44 56/56/39 61/61/43 
f 56/56/39 62/62/44 59/59/42 
f 63/63/3 64/64/4 65/65/4 
f 64/64/4 63/63/3 66/66/3 
f 63/63/3 65/65/4 67/67/4 
f 67/67/4 68/68/3 63/63/3 
f 60/60/8 69/69/9 70/70/7 
f 69/69/9 60/60/8 55/55/10 
f 69/69/9 8/8/8 70/70/7 
f 8/8/8 69/69/9 9/9/9 
f 51/51/36 71/71/4 72/72/11 
f 71/71/4 51/51/36 53/53/3 
f 72/72/11 14/14/3 11/11/11 
f 14/14/3 72/72/11 71/71/4 
f 55/55/10 72/72/11 69/69/9 
f 72/72/11 55/55/10 51/51/36 
f 9/9/9 69/69/9 72/72/11 
f 9/9/9 72/72/11 11/11/11 
f 73/73/11 28/28/4 30/30/11 
f 28/28/4 73/73/11 74/74/4 
f 75/75/9 30/30/11 21/21/10 
f 30/30/11 75/75/9 73/73/11 
f 73/73/11 13/13/11 12/12/4 
f 73/73/11 12/12/4 74/74/4 
f 10/10/10 73/73/11 75/75/9 
f 73/73/11 10/10/10 13/13/11 
f 76/76/7 21/21/10 23/23/8 
f 21/21/10 76/76/7 75/75/9 
f 76/76/7 7/7/7 10/10/10 
f 76/76/7 10/10/10 75/75/9 
f 77/77/3 78/78/13 35/35/4 
f 35/35/4 78/78/13 36/36/12 
f 18/18/4 78/78/13 77/77/3 
f 78/78/13 18/18/4 16/16/13 
f 79/79/34 36/36/12 78/78/13 
f 36/36/12 79/79/34 38/38/14 
f 16/16/13 79/79/34 78/78/13 
f 79/79/34 16/16/13 20/20/14 
f 42/42/4 80/80/13 81/81/3 
f 80/80/13 42/42/4 44/44/12 
f 44/44/12 49/49/34 80/80/13 
f 80/80/13 49/49/34 82/82/14 
f 81/81/3 15/15/12 17/17/4 
f 15/15/12 81/81/3 80/80/13 
f 15/15/12 80/80/13 82/82/14 
f 15/15/12 82/82/14 19/19/14 
f 83/83/4 18/18/4 84/84/4 
f 18/18/4 83/83/4 17/17/4 
f 85/85/3 84/84/4 68/68/3 
f 84/84/4 85/85/3 83/83/4 
f 86/86/4 12/12/4 14/14/3 
f 12/12/4 86/86/4 67/67/4 
f 29/29/20 64/64/4 87/87/45 
f 64/64/4 29/29/20 28/28/4 
f 87/87/45 66/66/3 88/88/24 
f 66/66/3 87/87/45 64/64/4 
f 32/32/22 87/87/45 89/89/22 
f 87/87/45 32/32/22 29/29/20 
f 89/89/22 88/88/24 90/90/46 
f 88/88/24 89/89/22 87/87/45 
f 34/34/24 91/91/24 92/92/3 
f 92/92/3 35/35/4 34/34/24 
f 93/93/26 34/34/24 39/39/26 
f 34/34/24 93/93/26 91/91/24 
f 88/88/24 92/92/3 91/91/24 
f 92/92/3 88/88/24 66/66/3 
f 93/93/26 90/90/46 88/88/24 
f 88/88/24 91/91/24 93/93/26 
f 94/94/4 45/45/30 42/42/4 
f 45/45/30 94/94/4 95/95/30 
f 2/2/2 94/94/4 4/4/4 
f 94/94/4 2/2/2 95/95/30 
f 95/95/30 46/46/31 45/45/30 
f 46/46/31 95/95/30 96/96/31 
f 2/2/2 96/96/31 95/95/30 
f 96/96/31 2/2/2 6/6/6 
f 53/53/3 1/1/1 3/3/3 
f 1/1/1 53/53/3 52/52/37 
f 57/57/40 1/1/1 52/52/37 
f 1/1/1 57/57/40 5/5/5 
f 81/81/3 97/97/3 94/94/4 
f 94/94/4 42/42/4 81/81/3 
f 83/83/4 81/81/3 17/17/4 
f 81/81/3 83/83/4 97/97/3 
f 97/97/3 98/98/3 4/4/4 
f 4/4/4 94/94/4 97/97/3 
f 85/85/3 97/97/3 83/83/4 
f 97/97/3 85/85/3 98/98/3 
f 99/99/4 71/71/4 53/53/3 
f 53/53/3 3/3/3 99/99/4 
f 98/98/3 99/99/4 3/3/3 
f 3/3/3 4/4/4 98/98/3 
f 14/14/3 99/99/4 86/86/4 
f 99/99/4 14/14/3 71/71/4 
f 86/86/4 98/98/3 85/85/3 
f 98/98/3 86/86/4 99/99/4 
f 74/74/4 64/64/4 28/28/4 
f 64/64/4 74/74/4 65/65/4 
f 74/74/4 67/67/4 65/65/4 
f 67/67/4 74/74/4 12/12/4 
f 92/92/3 77/77/3 35/35/4 
f 77/77/3 92/92/3 100/100/3 
f 66/66/3 100/100/3 92/92/3 
f 100/100/3 66/66/3 63/63/3 
f 84/84/4 77/77/3 100/100/3 
f 77/77/3 84/84/4 18/18/4 
f 68/68/3 100/100/3 63/63/3 
f 100/100/3 68/68/3 84/84/4 
f 86/86/4 85/85/3 101/101/4 
f 85/85/3 68/68/3 101/101/4 
f 68/68/3 67/67/4 101/101/4 
f 67/67/4 86/86/4 101/101/4 
# 164 faces

