# 3ds Max Wavefront OBJ Exporter v0.99 - (c)2007 guruware
# File Created: 12.11.2023 19:30:42

mtllib base_monedas.mtl

#
# object Box012
#

v  2.7198 11.0807 -3.1743
v  2.7198 11.0807 -2.9621
v  -1.4844 11.0807 -2.9621
v  -1.4844 11.0807 -3.1743
v  2.7198 14.7693 -3.1743
v  -1.4844 14.7693 -3.1743
v  -1.4844 14.7693 -2.9621
v  2.7198 14.7693 -2.9621
# 8 vertices

vn 0.0000 -1.0000 -0.0000
vn 0.0000 1.0000 -0.0000
vn 0.0000 0.0000 1.0000
vn 1.0000 0.0000 -0.0000
vn 0.0000 0.0000 -1.0000
vn -1.0000 0.0000 -0.0000
# 6 vertex normals

vt 0.0000 1.0000 0.0000
vt 0.0000 0.0000 0.0000
vt 1.0000 0.0000 0.0000
vt 1.0000 1.0000 0.0000
# 4 texture coords

o Box012
g Box012
usemtl Material__28
s 2
f 1/1/1 2/2/1 3/3/1 
f 3/3/1 4/4/1 1/1/1 
s 4
f 5/4/2 6/1/2 7/2/2 
f 7/2/2 8/3/2 5/4/2 
s 8
f 3/2/3 2/3/3 8/4/3 
f 8/4/3 7/1/3 3/2/3 
s 16
f 5/4/4 8/1/4 2/2/4 
f 2/2/4 1/3/4 5/4/4 
s 32
f 1/2/5 4/3/5 6/4/5 
f 6/4/5 5/1/5 1/2/5 
s 64
f 4/2/6 3/3/6 7/4/6 
f 7/4/6 6/1/6 4/2/6 
# 12 faces

