# 3ds Max Wavefront OBJ Exporter v0.99 - (c)2007 guruware
# File Created: 12.11.2023 19:31:17

mtllib boton_rojo.mtl

#
# object Cylinder00
#

v  0.2406 13.2343 -3.0537
v  0.3408 13.8021 -3.0518
v  0.5289 13.7336 -3.0520
v  0.6823 13.6049 -3.0524
v  0.7824 13.4315 -3.0530
v  0.8172 13.2343 -3.0537
v  0.7824 13.0371 -3.0544
v  0.6823 12.8637 -3.0550
v  0.5289 12.7350 -3.0554
v  0.3408 12.6665 -3.0556
v  0.1405 12.6665 -3.0556
v  -0.0476 12.7350 -3.0554
v  -0.2010 12.8637 -3.0550
v  -0.3011 13.0371 -3.0544
v  -0.3359 13.2343 -3.0537
v  -0.3011 13.4315 -3.0530
v  -0.2010 13.6049 -3.0524
v  -0.0476 13.7336 -3.0520
v  0.1405 13.8021 -3.0518
v  0.7824 13.4313 -3.0099
v  0.8172 13.2341 -3.0106
v  0.6823 13.6047 -3.0094
v  0.5289 13.7334 -3.0089
v  0.3408 13.8019 -3.0087
v  0.1405 13.8019 -3.0087
v  -0.0476 13.7334 -3.0089
v  -0.2010 13.6047 -3.0094
v  -0.3011 13.4313 -3.0099
v  -0.3359 13.2341 -3.0106
v  -0.3011 13.0369 -3.0113
v  -0.2010 12.8635 -3.0119
v  -0.0476 12.7348 -3.0123
v  0.1405 12.6663 -3.0125
v  0.3408 12.6663 -3.0125
v  0.5289 12.7348 -3.0123
v  0.6823 12.8635 -3.0119
v  0.7824 13.0369 -3.0113
v  0.7824 13.4312 -2.9669
v  0.8172 13.2340 -2.9675
v  0.6823 13.6046 -2.9663
v  0.5289 13.7333 -2.9658
v  0.3408 13.8018 -2.9656
v  0.1405 13.8018 -2.9656
v  -0.0476 13.7333 -2.9658
v  -0.2010 13.6046 -2.9663
v  -0.3011 13.4312 -2.9669
v  -0.3359 13.2340 -2.9675
v  -0.3011 13.0368 -2.9682
v  -0.2010 12.8634 -2.9688
v  -0.0476 12.7347 -2.9692
v  0.1405 12.6662 -2.9695
v  0.3408 12.6662 -2.9695
v  0.5289 12.7347 -2.9692
v  0.6823 12.8634 -2.9688
v  0.7824 13.0368 -2.9682
v  0.7824 13.4310 -2.9238
v  0.8172 13.2338 -2.9244
v  0.6823 13.6044 -2.9232
v  0.5289 13.7331 -2.9227
v  0.3408 13.8016 -2.9225
v  0.1405 13.8016 -2.9225
v  -0.0476 13.7331 -2.9227
v  -0.2010 13.6044 -2.9232
v  -0.3011 13.4310 -2.9238
v  -0.3359 13.2338 -2.9244
v  -0.3011 13.0366 -2.9251
v  -0.2010 12.8632 -2.9257
v  -0.0476 12.7345 -2.9261
v  0.1405 12.6660 -2.9264
v  0.3408 12.6660 -2.9264
v  0.5289 12.7345 -2.9261
v  0.6823 12.8632 -2.9257
v  0.7824 13.0366 -2.9251
v  0.7824 13.4309 -2.8807
v  0.8172 13.2337 -2.8813
v  0.6823 13.6043 -2.8801
v  0.5289 13.7330 -2.8796
v  0.3408 13.8015 -2.8794
v  0.1405 13.8015 -2.8794
v  -0.0476 13.7330 -2.8796
v  -0.2010 13.6043 -2.8801
v  -0.3011 13.4309 -2.8807
v  -0.3359 13.2337 -2.8813
v  -0.3011 13.0365 -2.8820
v  -0.2010 12.8631 -2.8826
v  -0.0476 12.7344 -2.8830
v  0.1405 12.6659 -2.8833
v  0.3408 12.6659 -2.8833
v  0.5289 12.7344 -2.8830
v  0.6823 12.8631 -2.8826
v  0.7824 13.0365 -2.8820
v  0.7824 13.4307 -2.8376
v  0.8172 13.2335 -2.8382
v  0.6823 13.6041 -2.8370
v  0.5289 13.7328 -2.8366
v  0.3408 13.8013 -2.8363
v  0.1405 13.8013 -2.8363
v  -0.0476 13.7328 -2.8366
v  -0.2010 13.6041 -2.8370
v  -0.3011 13.4307 -2.8376
v  -0.3359 13.2335 -2.8382
v  -0.3011 13.0363 -2.8389
v  -0.2010 12.8629 -2.8395
v  -0.0476 12.7342 -2.8399
v  0.1405 12.6657 -2.8402
v  0.3408 12.6657 -2.8402
v  0.5289 12.7342 -2.8399
v  0.6823 12.8629 -2.8395
v  0.7824 13.0363 -2.8389
v  0.2406 13.2335 -2.8382
# 110 vertices

vn 0.0000 0.0034 -1.0000
vn -0.0000 0.0034 -1.0000
vn 1.0000 0.0000 -0.0000
vn 0.9397 0.3420 0.0012
vn 1.0000 -0.0000 0.0000
vn 0.7660 0.6428 0.0022
vn 0.5000 0.8660 0.0029
vn 0.3420 0.9397 0.0032
vn 0.0000 1.0000 0.0034
vn -0.1736 0.9848 0.0034
vn -0.1797 0.9837 0.0034
vn -0.5000 0.8660 0.0029
vn -0.7660 0.6428 0.0022
vn -0.9397 0.3420 0.0012
vn -1.0000 0.0000 0.0000
vn -1.0000 -0.0000 -0.0000
vn -0.9397 -0.3420 -0.0012
vn -0.7660 -0.6428 -0.0022
vn -0.5000 -0.8660 -0.0030
vn -0.1737 -0.9848 -0.0033
vn 0.1736 -0.9848 -0.0034
vn 0.1736 -0.9848 -0.0033
vn 0.5000 -0.8660 -0.0029
vn 0.7660 -0.6428 -0.0022
vn 0.9397 -0.3420 -0.0012
vn -0.1797 0.9837 0.0033
vn -0.5000 -0.8660 -0.0029
vn -0.1736 -0.9848 -0.0034
vn -0.5000 0.8660 0.0030
vn -1.0000 -0.0000 0.0000
vn -0.1736 -0.9848 -0.0033
vn 0.5000 0.8660 0.0030
vn -0.1862 0.9825 0.0034
vn 0.0000 -0.0034 1.0000
vn -0.0000 -0.0034 1.0000
# 35 vertex normals

vt 0.5000 0.0000 0.0000
vt 0.9722 0.0000 0.0000
vt 0.9167 0.0000 0.0000
vt 0.8611 0.0000 0.0000
vt 0.8056 0.0000 0.0000
vt 0.7500 0.0000 0.0000
vt 0.6944 0.0000 0.0000
vt 0.6389 0.0000 0.0000
vt 0.5833 0.0000 0.0000
vt 0.5278 0.0000 0.0000
vt 0.4722 0.0000 0.0000
vt 0.4167 0.0000 0.0000
vt 0.3611 0.0000 0.0000
vt 0.3056 0.0000 0.0000
vt 0.2500 0.0000 0.0000
vt 0.1944 0.0000 0.0000
vt 0.1389 0.0000 0.0000
vt 0.0833 0.0000 0.0000
vt 0.0278 0.0000 0.0000
vt -0.0278 0.0000 0.0000
vt 0.8056 0.2000 0.0000
vt 0.7500 0.2000 0.0000
vt 0.8611 0.2000 0.0000
vt 0.9167 0.2000 0.0000
vt 0.9722 0.2000 0.0000
vt 0.0278 0.2000 0.0000
vt -0.0278 0.2000 0.0000
vt 0.0833 0.2000 0.0000
vt 0.1389 0.2000 0.0000
vt 0.1944 0.2000 0.0000
vt 0.2500 0.2000 0.0000
vt 0.3056 0.2000 0.0000
vt 0.3611 0.2000 0.0000
vt 0.4167 0.2000 0.0000
vt 0.4722 0.2000 0.0000
vt 0.5278 0.2000 0.0000
vt 0.5833 0.2000 0.0000
vt 0.6389 0.2000 0.0000
vt 0.6944 0.2000 0.0000
vt 0.8056 0.4000 0.0000
vt 0.7500 0.4000 0.0000
vt 0.8611 0.4000 0.0000
vt 0.9167 0.4000 0.0000
vt 0.9722 0.4000 0.0000
vt 0.0278 0.4000 0.0000
vt -0.0278 0.4000 0.0000
vt 0.0833 0.4000 0.0000
vt 0.1389 0.4000 0.0000
vt 0.1944 0.4000 0.0000
vt 0.2500 0.4000 0.0000
vt 0.3056 0.4000 0.0000
vt 0.3611 0.4000 0.0000
vt 0.4167 0.4000 0.0000
vt 0.4722 0.4000 0.0000
vt 0.5278 0.4000 0.0000
vt 0.5833 0.4000 0.0000
vt 0.6389 0.4000 0.0000
vt 0.6944 0.4000 0.0000
vt 0.8056 0.6000 0.0000
vt 0.7500 0.6000 0.0000
vt 0.8611 0.6000 0.0000
vt 0.9167 0.6000 0.0000
vt 0.9722 0.6000 0.0000
vt 0.0278 0.6000 0.0000
vt -0.0278 0.6000 0.0000
vt 0.0833 0.6000 0.0000
vt 0.1389 0.6000 0.0000
vt 0.1944 0.6000 0.0000
vt 0.2500 0.6000 0.0000
vt 0.3056 0.6000 0.0000
vt 0.3611 0.6000 0.0000
vt 0.4167 0.6000 0.0000
vt 0.4722 0.6000 0.0000
vt 0.5278 0.6000 0.0000
vt 0.5833 0.6000 0.0000
vt 0.6389 0.6000 0.0000
vt 0.6944 0.6000 0.0000
vt 0.8056 0.8000 0.0000
vt 0.7500 0.8000 0.0000
vt 0.8611 0.8000 0.0000
vt 0.9167 0.8000 0.0000
vt 0.9722 0.8000 0.0000
vt 0.0278 0.8000 0.0000
vt -0.0278 0.8000 0.0000
vt 0.0833 0.8000 0.0000
vt 0.1389 0.8000 0.0000
vt 0.1944 0.8000 0.0000
vt 0.2500 0.8000 0.0000
vt 0.3056 0.8000 0.0000
vt 0.3611 0.8000 0.0000
vt 0.4167 0.8000 0.0000
vt 0.4722 0.8000 0.0000
vt 0.5278 0.8000 0.0000
vt 0.5833 0.8000 0.0000
vt 0.6389 0.8000 0.0000
vt 0.6944 0.8000 0.0000
vt 0.8056 1.0000 0.0000
vt 0.7500 1.0000 0.0000
vt 0.8611 1.0000 0.0000
vt 0.9167 1.0000 0.0000
vt 0.9722 1.0000 0.0000
vt 0.0278 1.0000 0.0000
vt -0.0278 1.0000 0.0000
vt 0.0833 1.0000 0.0000
vt 0.1389 1.0000 0.0000
vt 0.1944 1.0000 0.0000
vt 0.2500 1.0000 0.0000
vt 0.3056 1.0000 0.0000
vt 0.3611 1.0000 0.0000
vt 0.4167 1.0000 0.0000
vt 0.4722 1.0000 0.0000
vt 0.5278 1.0000 0.0000
vt 0.5833 1.0000 0.0000
vt 0.6389 1.0000 0.0000
vt 0.6944 1.0000 0.0000
vt 0.5000 1.0000 0.0000
# 116 texture coords

o Cylinder00
g Cylinder00
usemtl Material__29
s 1
f 1/1/1 2/2/1 3/3/2 
f 1/1/1 3/3/2 4/4/2 
f 1/1/1 4/4/2 5/5/2 
f 1/1/1 5/5/2 6/6/1 
f 1/1/1 6/6/1 7/7/1 
f 1/1/1 7/7/1 8/8/1 
f 1/1/1 8/8/1 9/9/2 
f 1/1/1 9/9/2 10/10/2 
f 1/1/1 10/10/2 11/11/1 
f 1/1/1 11/11/1 12/12/1 
f 1/1/1 12/12/1 13/13/2 
f 1/1/1 13/13/2 14/14/2 
f 1/1/1 14/14/2 15/15/1 
f 1/1/1 15/15/1 16/16/1 
f 1/1/1 16/16/1 17/17/1 
f 1/1/1 17/17/1 18/18/1 
f 1/1/1 18/18/1 19/19/1 
f 1/1/1 19/19/1 2/20/1 
s 8
f 6/6/3 5/5/4 20/21/4 
f 20/21/4 21/22/5 6/6/3 
f 5/5/4 4/4/6 22/23/6 
f 22/23/6 20/21/4 5/5/4 
f 4/4/6 3/3/7 23/24/7 
f 23/24/7 22/23/6 4/4/6 
f 3/3/7 2/2/8 24/25/8 
f 24/25/8 23/24/7 3/3/7 
f 2/20/9 25/26/9 24/27/9 
f 2/20/9 19/19/10 25/26/11 
f 19/19/10 18/18/12 26/28/12 
f 26/28/12 25/26/11 19/19/10 
f 18/18/12 17/17/13 27/29/13 
f 27/29/13 26/28/12 18/18/12 
f 17/17/13 16/16/14 28/30/14 
f 28/30/14 27/29/13 17/17/13 
f 16/16/14 15/15/15 29/31/16 
f 29/31/16 28/30/14 16/16/14 
f 15/15/15 14/14/17 30/32/17 
f 30/32/17 29/31/16 15/15/15 
f 14/14/17 13/13/18 31/33/18 
f 31/33/18 30/32/17 14/14/17 
f 13/13/18 12/12/19 32/34/19 
f 32/34/19 31/33/18 13/13/18 
f 12/12/19 11/11/20 33/35/20 
f 33/35/20 32/34/19 12/12/19 
f 11/11/20 10/10/21 34/36/22 
f 34/36/22 33/35/20 11/11/20 
f 10/10/21 9/9/23 35/37/23 
f 35/37/23 34/36/22 10/10/21 
f 9/9/23 8/8/24 36/38/24 
f 36/38/24 35/37/23 9/9/23 
f 8/8/24 7/7/25 37/39/25 
f 37/39/25 36/38/24 8/8/24 
f 7/7/25 6/6/3 21/22/5 
f 21/22/5 37/39/25 7/7/25 
f 21/22/5 20/21/4 38/40/4 
f 38/40/4 39/41/3 21/22/5 
f 20/21/4 22/23/6 40/42/6 
f 40/42/6 38/40/4 20/21/4 
f 22/23/6 23/24/7 41/43/7 
f 41/43/7 40/42/6 22/23/6 
f 23/24/7 24/25/8 42/44/8 
f 42/44/8 41/43/7 23/24/7 
f 24/27/9 43/45/9 42/46/9 
f 24/27/9 25/26/11 43/45/26 
f 25/26/11 26/28/12 44/47/12 
f 44/47/12 43/45/26 25/26/11 
f 26/28/12 27/29/13 45/48/13 
f 45/48/13 44/47/12 26/28/12 
f 27/29/13 28/30/14 46/49/14 
f 46/49/14 45/48/13 27/29/13 
f 28/30/14 29/31/16 47/50/15 
f 47/50/15 46/49/14 28/30/14 
f 29/31/16 30/32/17 48/51/17 
f 48/51/17 47/50/15 29/31/16 
f 30/32/17 31/33/18 49/52/18 
f 49/52/18 48/51/17 30/32/17 
f 31/33/18 32/34/19 50/53/27 
f 50/53/27 49/52/18 31/33/18 
f 32/34/19 33/35/20 51/54/28 
f 51/54/28 50/53/27 32/34/19 
f 33/35/20 34/36/22 52/55/22 
f 52/55/22 51/54/28 33/35/20 
f 34/36/22 35/37/23 53/56/23 
f 53/56/23 52/55/22 34/36/22 
f 35/37/23 36/38/24 54/57/24 
f 54/57/24 53/56/23 35/37/23 
f 36/38/24 37/39/25 55/58/25 
f 55/58/25 54/57/24 36/38/24 
f 37/39/25 21/22/5 39/41/3 
f 39/41/3 55/58/25 37/39/25 
f 39/41/3 38/40/4 56/59/4 
f 56/59/4 57/60/5 39/41/3 
f 38/40/4 40/42/6 58/61/6 
f 58/61/6 56/59/4 38/40/4 
f 40/42/6 41/43/7 59/62/7 
f 59/62/7 58/61/6 40/42/6 
f 41/43/7 42/44/8 60/63/8 
f 60/63/8 59/62/7 41/43/7 
f 42/46/9 61/64/9 60/65/9 
f 42/46/9 43/45/26 61/64/26 
f 43/45/26 44/47/12 62/66/29 
f 62/66/29 61/64/26 43/45/26 
f 44/47/12 45/48/13 63/67/13 
f 63/67/13 62/66/29 44/47/12 
f 45/48/13 46/49/14 64/68/14 
f 64/68/14 63/67/13 45/48/13 
f 46/49/14 47/50/15 65/69/30 
f 65/69/30 64/68/14 46/49/14 
f 47/50/15 48/51/17 66/70/17 
f 66/70/17 65/69/30 47/50/15 
f 48/51/17 49/52/18 67/71/18 
f 67/71/18 66/70/17 48/51/17 
f 49/52/18 50/53/27 68/72/27 
f 68/72/27 67/71/18 49/52/18 
f 50/53/27 51/54/28 69/73/31 
f 69/73/31 68/72/27 50/53/27 
f 51/54/28 52/55/22 70/74/22 
f 70/74/22 69/73/31 51/54/28 
f 52/55/22 53/56/23 71/75/23 
f 71/75/23 70/74/22 52/55/22 
f 53/56/23 54/57/24 72/76/24 
f 72/76/24 71/75/23 53/56/23 
f 54/57/24 55/58/25 73/77/25 
f 73/77/25 72/76/24 54/57/24 
f 55/58/25 39/41/3 57/60/5 
f 57/60/5 73/77/25 55/58/25 
f 57/60/5 56/59/4 74/78/4 
f 74/78/4 75/79/3 57/60/5 
f 56/59/4 58/61/6 76/80/6 
f 76/80/6 74/78/4 56/59/4 
f 58/61/6 59/62/7 77/81/32 
f 77/81/32 76/80/6 58/61/6 
f 59/62/7 60/63/8 78/82/8 
f 78/82/8 77/81/32 59/62/7 
f 60/65/9 79/83/9 78/84/9 
f 60/65/9 61/64/26 79/83/26 
f 61/64/26 62/66/29 80/85/29 
f 80/85/29 79/83/26 61/64/26 
f 62/66/29 63/67/13 81/86/13 
f 81/86/13 80/85/29 62/66/29 
f 63/67/13 64/68/14 82/87/14 
f 82/87/14 81/86/13 63/67/13 
f 64/68/14 65/69/30 83/88/15 
f 83/88/15 82/87/14 64/68/14 
f 65/69/30 66/70/17 84/89/17 
f 84/89/17 83/88/15 65/69/30 
f 66/70/17 67/71/18 85/90/18 
f 85/90/18 84/89/17 66/70/17 
f 67/71/18 68/72/27 86/91/27 
f 86/91/27 85/90/18 67/71/18 
f 68/72/27 69/73/31 87/92/31 
f 87/92/31 86/91/27 68/72/27 
f 69/73/31 70/74/22 88/93/22 
f 88/93/22 87/92/31 69/73/31 
f 70/74/22 71/75/23 89/94/23 
f 89/94/23 88/93/22 70/74/22 
f 71/75/23 72/76/24 90/95/24 
f 90/95/24 89/94/23 71/75/23 
f 72/76/24 73/77/25 91/96/25 
f 91/96/25 90/95/24 72/76/24 
f 73/77/25 57/60/5 75/79/3 
f 75/79/3 91/96/25 73/77/25 
f 75/79/3 74/78/4 92/97/4 
f 92/97/4 93/98/5 75/79/3 
f 74/78/4 76/80/6 94/99/6 
f 94/99/6 92/97/4 74/78/4 
f 76/80/6 77/81/32 95/100/7 
f 95/100/7 94/99/6 76/80/6 
f 77/81/32 78/82/8 96/101/8 
f 96/101/8 95/100/7 77/81/32 
f 78/84/9 97/102/9 96/103/9 
f 78/84/9 79/83/26 97/102/33 
f 79/83/26 80/85/29 98/104/12 
f 98/104/12 97/102/33 79/83/26 
f 80/85/29 81/86/13 99/105/13 
f 99/105/13 98/104/12 80/85/29 
f 81/86/13 82/87/14 100/106/14 
f 100/106/14 99/105/13 81/86/13 
f 82/87/14 83/88/15 101/107/16 
f 101/107/16 100/106/14 82/87/14 
f 83/88/15 84/89/17 102/108/17 
f 102/108/17 101/107/16 83/88/15 
f 84/89/17 85/90/18 103/109/18 
f 103/109/18 102/108/17 84/89/17 
f 85/90/18 86/91/27 104/110/27 
f 104/110/27 103/109/18 85/90/18 
f 86/91/27 87/92/31 105/111/31 
f 105/111/31 104/110/27 86/91/27 
f 87/92/31 88/93/22 106/112/22 
f 106/112/22 105/111/31 87/92/31 
f 88/93/22 89/94/23 107/113/23 
f 107/113/23 106/112/22 88/93/22 
f 89/94/23 90/95/24 108/114/24 
f 108/114/24 107/113/23 89/94/23 
f 90/95/24 91/96/25 109/115/25 
f 109/115/25 108/114/24 90/95/24 
f 91/96/25 75/79/3 93/98/5 
f 93/98/5 109/115/25 91/96/25 
s 1
f 110/116/34 96/103/34 97/102/35 
f 110/116/34 97/102/35 98/104/35 
f 110/116/34 98/104/35 99/105/34 
f 110/116/34 99/105/34 100/106/34 
f 110/116/34 100/106/34 101/107/34 
f 110/116/34 101/107/34 102/108/34 
f 110/116/34 102/108/34 103/109/35 
f 110/116/34 103/109/35 104/110/34 
f 110/116/34 104/110/34 105/111/34 
f 110/116/34 105/111/34 106/112/35 
f 110/116/34 106/112/35 107/113/35 
f 110/116/34 107/113/35 108/114/34 
f 110/116/34 108/114/34 109/115/34 
f 110/116/34 109/115/34 93/98/34 
f 110/116/34 93/98/34 92/97/35 
f 110/116/34 92/97/35 94/99/35 
f 110/116/34 94/99/35 95/100/34 
f 110/116/34 95/100/34 96/101/34 
# 216 faces

