# 3ds Max Wavefront OBJ Exporter v0.99 - (c)2007 guruware
# File Created: 14.11.2023 01:38:27

mtllib obstaculo_rejilla.mtl

#
# object ARCHMODELS_47_050_42
#

v  0.5480 17.3987 -20.2230
v  0.1640 16.9629 -20.1889
v  0.5708 16.9863 -20.2322
v  0.1412 17.3752 -20.1797
v  1.5200 17.4546 -20.3264
v  1.1360 17.0189 -20.2924
v  1.5428 17.0423 -20.3357
v  1.1132 17.4312 -20.2831
v  1.0340 17.4267 -20.2747
v  0.6500 16.9909 -20.2406
v  1.0568 17.0143 -20.2839
v  0.6272 17.4032 -20.2314
v  0.0620 17.3707 -20.1712
v  -0.3221 16.9349 -20.1372
v  0.0848 16.9584 -20.1805
v  -0.3448 17.3472 -20.1279
v  0.1512 16.9486 -20.1878
v  0.5822 16.9740 -20.2598
v  0.5850 16.9736 -20.2339
v  0.1485 16.9490 -20.2136
v  0.5607 17.4130 -20.2241
v  0.5580 17.4134 -20.2500
v  0.1270 17.3880 -20.1779
v  0.1242 17.3884 -20.2038
v  1.1233 17.0046 -20.2912
v  1.5542 17.0300 -20.3633
v  1.5570 17.0296 -20.3374
v  1.1205 17.0050 -20.3171
v  1.5328 17.4689 -20.3276
v  1.5300 17.4694 -20.3534
v  1.0990 17.4440 -20.2814
v  1.0962 17.4444 -20.3073
v  0.6373 16.9766 -20.2395
v  1.0682 17.0020 -20.3115
v  1.0710 17.0016 -20.2857
v  0.6345 16.9770 -20.2654
v  1.0467 17.4410 -20.2758
v  1.0440 17.4414 -20.3017
v  0.6130 17.4160 -20.2297
v  0.6102 17.4164 -20.2555
v  -0.3590 17.3600 -20.1262
v  0.0747 17.3850 -20.1724
v  0.0720 17.3854 -20.1982
v  -0.3618 17.3604 -20.1521
v  -0.3375 16.9211 -20.1619
v  -0.3348 16.9206 -20.1360
v  0.0962 16.9460 -20.2081
v  0.0990 16.9456 -20.1822
# 48 vertices

vn 0.1068 -0.0164 0.9941
vn 0.0551 -0.9982 -0.0224
vn 0.9928 0.0572 -0.1057
vn -0.0551 0.9982 0.0224
vn -0.9928 -0.0572 0.1057
vn -0.1068 0.0164 -0.9941
# 6 vertex normals

o ARCHMODELS_47_050_42
g ARCHMODELS_47_050_42
usemtl wire_204204204
s off
f 1//1 2//1 3//1 
f 2//1 1//1 4//1 
f 5//1 6//1 7//1 
f 6//1 5//1 8//1 
f 9//1 10//1 11//1 
f 10//1 9//1 12//1 
f 13//1 14//1 15//1 
f 14//1 13//1 16//1 
f 17//2 18//2 19//2 
f 18//2 17//2 20//2 
f 21//3 18//3 22//3 
f 18//3 21//3 19//3 
f 23//4 21//4 22//4 
f 22//4 24//4 23//4 
f 23//5 20//5 17//5 
f 20//5 23//5 24//5 
f 25//2 26//2 27//2 
f 26//2 25//2 28//2 
f 29//3 26//3 30//3 
f 26//3 29//3 27//3 
f 31//4 29//4 30//4 
f 30//4 32//4 31//4 
f 31//5 28//5 25//5 
f 28//5 31//5 32//5 
f 33//2 34//2 35//2 
f 34//2 33//2 36//2 
f 37//3 34//3 38//3 
f 34//3 37//3 35//3 
f 39//4 37//4 38//4 
f 38//4 40//4 39//4 
f 39//5 36//5 33//5 
f 36//5 39//5 40//5 
f 41//4 42//4 43//4 
f 43//4 44//4 41//4 
f 41//5 45//5 46//5 
f 45//5 41//5 44//5 
f 46//2 47//2 48//2 
f 47//2 46//2 45//2 
f 42//3 47//3 43//3 
f 47//3 42//3 48//3 
f 17//1 19//1 3//1 
f 17//1 3//1 2//1 
f 21//1 3//1 19//1 
f 3//1 21//1 1//1 
f 23//1 1//1 21//1 
f 1//1 23//1 4//1 
f 17//1 4//1 23//1 
f 4//1 17//1 2//1 
f 25//1 27//1 7//1 
f 25//1 7//1 6//1 
f 27//1 29//1 5//1 
f 27//1 5//1 7//1 
f 8//1 29//1 31//1 
f 29//1 8//1 5//1 
f 25//1 8//1 31//1 
f 8//1 25//1 6//1 
f 33//1 35//1 11//1 
f 33//1 11//1 10//1 
f 35//1 37//1 9//1 
f 35//1 9//1 11//1 
f 12//1 37//1 39//1 
f 37//1 12//1 9//1 
f 33//1 12//1 39//1 
f 12//1 33//1 10//1 
f 16//1 42//1 41//1 
f 42//1 16//1 13//1 
f 41//1 46//1 14//1 
f 41//1 14//1 16//1 
f 46//1 48//1 15//1 
f 46//1 15//1 14//1 
f 42//1 15//1 48//1 
f 15//1 42//1 13//1 
f 22//6 20//6 24//6 
f 20//6 22//6 18//6 
f 30//6 28//6 32//6 
f 28//6 30//6 26//6 
f 38//6 36//6 40//6 
f 36//6 38//6 34//6 
f 43//6 45//6 44//6 
f 45//6 43//6 47//6 
# 80 faces

#
# object ARCHMODELS_47_050_44
#

v  0.5527 16.8454 -20.4813
v  0.5566 17.4070 -20.4481
v  0.5105 17.3609 -20.4453
v  0.5072 16.8914 -20.4731
v  -0.0546 17.4070 -20.3756
v  -0.0091 17.3609 -20.3838
v  -0.0585 16.8454 -20.4089
v  -0.0124 16.8914 -20.4116
v  1.7751 16.8454 -20.6261
v  1.7791 17.4070 -20.5929
v  1.7329 17.3609 -20.5902
v  1.7296 16.8914 -20.6180
v  1.1679 17.4070 -20.5205
v  1.2134 17.3609 -20.5286
v  1.1639 16.8454 -20.5537
v  1.2101 16.8914 -20.5564
v  1.1217 17.3609 -20.5178
v  1.1184 16.8914 -20.5456
v  0.6021 17.3609 -20.4562
v  0.5988 16.8914 -20.4840
v  -0.6658 17.4070 -20.3032
v  -0.6698 16.8454 -20.3364
v  -0.6236 16.8914 -20.3391
v  -0.6203 17.3609 -20.3114
v  -0.1041 16.8914 -20.4007
v  -0.1008 17.3609 -20.3729
v  0.5522 17.4092 -20.4852
v  0.5483 16.8476 -20.5185
v  0.5061 17.3631 -20.4825
v  0.5028 16.8937 -20.5103
v  -0.0590 17.4092 -20.4128
v  -0.0135 17.3631 -20.4210
v  -0.0168 16.8937 -20.4487
v  -0.0630 16.8476 -20.4460
v  1.7747 17.4092 -20.6301
v  1.7707 16.8476 -20.6633
v  1.7285 17.3631 -20.6274
v  1.7252 16.8937 -20.6552
v  1.1634 17.4092 -20.5577
v  1.2090 17.3631 -20.5658
v  1.2057 16.8937 -20.5936
v  1.1595 16.8476 -20.5909
v  1.1173 17.3631 -20.5550
v  1.1140 16.8937 -20.5827
v  0.5977 17.3631 -20.4934
v  0.5944 16.8937 -20.5212
v  -0.6702 17.4092 -20.3404
v  -0.6280 16.8937 -20.3763
v  -0.6742 16.8476 -20.3736
v  -0.6247 17.3631 -20.3485
v  -0.1085 16.8937 -20.4379
v  -0.1052 17.3631 -20.4101
# 52 vertices

vn 0.1175 -0.0595 0.9913
vn -0.1175 0.0595 -0.9913
vn 0.0070 0.9982 0.0591
vn -0.0070 -0.9982 -0.0591
vn 0.9931 -0.0000 -0.1177
vn -0.9931 0.0000 0.1177
# 6 vertex normals

o ARCHMODELS_47_050_44
g ARCHMODELS_47_050_44
usemtl Material__29
s off
f 49//7 50//7 51//7 
f 49//7 51//7 52//7 
f 53//7 51//7 50//7 
f 51//7 53//7 54//7 
f 53//7 55//7 56//7 
f 53//7 56//7 54//7 
f 49//7 56//7 55//7 
f 56//7 49//7 52//7 
f 57//7 58//7 59//7 
f 57//7 59//7 60//7 
f 61//7 59//7 58//7 
f 59//7 61//7 62//7 
f 61//7 63//7 64//7 
f 61//7 64//7 62//7 
f 57//7 64//7 63//7 
f 64//7 57//7 60//7 
f 63//7 61//7 65//7 
f 63//7 65//7 66//7 
f 50//7 65//7 61//7 
f 65//7 50//7 67//7 
f 50//7 49//7 68//7 
f 50//7 68//7 67//7 
f 63//7 68//7 49//7 
f 68//7 63//7 66//7 
f 69//7 70//7 71//7 
f 69//7 71//7 72//7 
f 55//7 71//7 70//7 
f 71//7 55//7 73//7 
f 55//7 53//7 74//7 
f 55//7 74//7 73//7 
f 69//7 74//7 53//7 
f 74//7 69//7 72//7 
f 75//8 76//8 77//8 
f 77//8 76//8 78//8 
f 79//8 77//8 80//8 
f 77//8 79//8 75//8 
f 79//8 81//8 82//8 
f 81//8 79//8 80//8 
f 76//8 81//8 78//8 
f 81//8 76//8 82//8 
f 83//8 84//8 85//8 
f 85//8 84//8 86//8 
f 87//8 85//8 88//8 
f 85//8 87//8 83//8 
f 87//8 89//8 90//8 
f 89//8 87//8 88//8 
f 84//8 89//8 86//8 
f 89//8 84//8 90//8 
f 87//8 90//8 91//8 
f 91//8 90//8 92//8 
f 75//8 91//8 93//8 
f 91//8 75//8 87//8 
f 75//8 94//8 76//8 
f 94//8 75//8 93//8 
f 90//8 94//8 92//8 
f 94//8 90//8 76//8 
f 95//8 96//8 97//8 
f 96//8 95//8 98//8 
f 82//8 96//8 99//8 
f 96//8 82//8 97//8 
f 79//8 82//8 100//8 
f 100//8 82//8 99//8 
f 95//8 100//8 98//8 
f 100//8 95//8 79//8 
f 79//9 50//9 75//9 
f 50//9 79//9 53//9 
f 55//10 76//10 49//10 
f 76//10 55//10 82//10 
f 83//11 57//11 84//11 
f 57//11 83//11 58//11 
f 83//9 87//9 61//9 
f 83//9 61//9 58//9 
f 63//10 84//10 57//10 
f 84//10 63//10 90//10 
f 87//9 75//9 50//9 
f 87//9 50//9 61//9 
f 63//10 49//10 76//10 
f 63//10 76//10 90//10 
f 95//12 70//12 69//12 
f 70//12 95//12 97//12 
f 70//10 82//10 55//10 
f 82//10 70//10 97//10 
f 95//9 53//9 79//9 
f 53//9 95//9 69//9 
f 77//12 52//12 51//12 
f 52//12 77//12 78//12 
f 51//10 54//10 80//10 
f 51//10 80//10 77//10 
f 80//11 56//11 81//11 
f 56//11 80//11 54//11 
f 78//9 81//9 56//9 
f 78//9 56//9 52//9 
f 85//12 60//12 59//12 
f 60//12 85//12 86//12 
f 59//10 62//10 88//10 
f 59//10 88//10 85//10 
f 89//11 88//11 62//11 
f 62//11 64//11 89//11 
f 89//9 60//9 86//9 
f 60//9 89//9 64//9 
f 93//11 68//11 94//11 
f 68//11 93//11 67//11 
f 94//9 66//9 92//9 
f 66//9 94//9 68//9 
f 91//12 66//12 65//12 
f 66//12 91//12 92//12 
f 67//10 91//10 65//10 
f 91//10 67//10 93//10 
f 74//12 99//12 73//12 
f 99//12 74//12 100//12 
f 74//10 72//10 98//10 
f 74//10 98//10 100//10 
f 98//11 71//11 96//11 
f 71//11 98//11 72//11 
f 96//9 73//9 99//9 
f 73//9 96//9 71//9 
# 116 faces

